HIERARCHY
ROOT RootJoint
{
    OFFSET   0.000000   0.000000   0.000000
    CHANNELS 6 Xposition Yposition Zposition Xrotation Yrotation Zrotation
    JOINT pelvis_lowerback
    {
        OFFSET   0.000000   0.093605   0.000000
        CHANNELS 3 Xrotation Yrotation Zrotation
        JOINT lowerback_torso
        {
            OFFSET   0.000000   0.100000   0.000000
            CHANNELS 3 Xrotation Yrotation Zrotation
            JOINT torso_head
            {
                OFFSET   0.000000   0.282350   0.000000
                CHANNELS 3 Xrotation Yrotation Zrotation
                End Site
                {
                    OFFSET   0.000000   0.192650   0.000000
                }
            }
            JOINT rTorso_Clavicle
            {
                OFFSET  -0.001000   0.157500   0.000000
                CHANNELS 3 Xrotation Yrotation Zrotation
                JOINT rShoulder
                {
                    OFFSET  -0.117647   0.000000   0.000000
                    CHANNELS 3 Xrotation Yrotation Zrotation
                    JOINT rElbow
                    {
                        OFFSET  -0.245000   0.000000   0.000000
                        CHANNELS 3 Xrotation Yrotation Zrotation
                        JOINT rWrist
                        {
                            OFFSET  -0.240000   0.000000   0.000000
                            CHANNELS 3 Xrotation Yrotation Zrotation
                            End Site
                            {
                                OFFSET  -0.116353  -0.002500   0.000000
                            }
                        }
                    }
                }
            }
            JOINT lTorso_Clavicle
            {
                OFFSET   0.001000   0.157500   0.000000
                CHANNELS 3 Xrotation Yrotation Zrotation
                JOINT lShoulder
                {
                    OFFSET   0.117647   0.000000   0.000000
                    CHANNELS 3 Xrotation Yrotation Zrotation
                    JOINT lElbow
                    {
                        OFFSET   0.245000   0.000000   0.000000
                        CHANNELS 3 Xrotation Yrotation Zrotation
                        JOINT lWrist
                        {
                            OFFSET   0.240000   0.000000   0.000000
                            CHANNELS 3 Xrotation Yrotation Zrotation
                            End Site
                            {
                                OFFSET   0.116353  -0.002500   0.000000
                            }
                        }
                    }
                }
            }
        }
    }
    JOINT rHip
    {
        OFFSET  -0.100000  -0.051395   0.000000
        CHANNELS 3 Xrotation Yrotation Zrotation
        JOINT rKnee
        {
            OFFSET   0.000000  -0.410000   0.000000
            CHANNELS 3 Xrotation Yrotation Zrotation
            JOINT rAnkle
            {
                OFFSET   0.000000  -0.390000   0.000000
                CHANNELS 3 Xrotation Yrotation Zrotation
                JOINT rToeJoint
                {
                    OFFSET   0.000000  -0.050000   0.130000
                    CHANNELS 3 Xrotation Yrotation Zrotation
                    End Site
                    {
                        OFFSET  -0.010000   0.002000   0.060000
                    }
                }
            }
        }
    }
    JOINT lHip
    {
        OFFSET   0.100000  -0.051395   0.000000
        CHANNELS 3 Xrotation Yrotation Zrotation
        JOINT lKnee
        {
            OFFSET   0.000000  -0.410000   0.000000
            CHANNELS 3 Xrotation Yrotation Zrotation
            JOINT lAnkle
            {
                OFFSET   0.000000  -0.390000   0.000000
                CHANNELS 3 Xrotation Yrotation Zrotation
                JOINT lToeJoint
                {
                    OFFSET   0.000000  -0.050000   0.130000
                    CHANNELS 3 Xrotation Yrotation Zrotation
                    End Site
                    {
                        OFFSET   0.010000   0.002000   0.060000
                    }
                }
            }
        }
    }
}
MOTION
Frames: 14
Frame Time:   0.008333
 -2.336995   0.895427   3.845381  21.229485   9.495768  -7.946344  37.256147   2.415365  -4.387555   8.508563   0.859047  -3.917929   0.571876   1.722804  -2.934556  -3.794772  10.963823 -12.586735  -4.949129  -1.029517  39.568183 179.999862  38.620034 -179.999990   8.104911  -7.198396  26.637634  -5.746553  -8.576277  10.214827  -9.191821  -3.805590 -37.816848 -179.999942 -40.462497 -179.999685   1.615454  -5.139667 -31.519173 -39.425202  -6.759251  -3.495140  21.658294   0.000017  -0.000047   1.907550  -7.497860   0.112839  -6.489228  -0.000005   0.000116 -39.323111  -7.966598   7.339555  28.198638  -0.000009   0.000013  -9.384131  -2.896324  -4.148111  -0.508050  -0.000063   0.000000
 -2.336407   0.895517   3.845507  21.176940   9.473682  -7.892345  37.208115   2.411730  -4.364423   8.514258   0.858020  -3.940291   0.599066   1.700495  -2.938592  -3.765051  10.942529 -12.724790  -4.727655  -1.071159  39.226887 179.999208  38.465679 -179.999870   7.819342  -7.341607  26.498572  -5.705284  -8.572677  10.224586  -8.948686  -3.882138 -37.597697 179.999875 -40.419110 -179.999853   1.475808  -5.269401 -31.231319 -39.386135  -6.736515  -3.559191  21.679688   0.000019  -0.000046   1.947746  -7.492766   0.169427  -6.562894   0.000004   0.000120 -39.240906  -7.913150   7.282266  28.169976  -0.000017   0.000016  -9.382462  -2.880334  -4.140626  -0.523551  -0.000055   0.000000
 -2.335813   0.895609   3.845612  21.124939   9.450227  -7.835196  37.152701   2.405149  -4.339531   8.515854   0.850826  -3.966456   0.634991   1.679237  -2.941957  -3.737439  10.904516 -12.914283  -4.518246  -1.113259  38.869099 179.998585  38.304136 -179.999820   7.562971  -7.464359  26.442452  -5.664316  -8.558924  10.271883  -8.715943  -3.954527 -37.368479 179.999690 -40.369900 -179.999993   1.327819  -5.415926 -31.029021 -39.347254  -6.714617  -3.625044  21.696389   0.000020  -0.000044   1.988040  -7.490690   0.220317  -6.630246   0.000009   0.000124 -39.158489  -7.856810   7.222324  28.136702  -0.000025   0.000020  -9.377112  -2.863882  -4.133040  -0.537843  -0.000049   0.000000
 -2.335218   0.895704   3.845726  21.073529   9.425393  -7.779377  37.088747   2.396900  -4.314810   8.508553   0.840608  -3.992741   0.671026   1.659268  -2.944495  -3.713566  10.863023 -13.112460  -4.323743  -1.154385  38.522555 179.998142  38.147464 -179.999839   7.327504  -7.575479  26.419000  -5.626569  -8.543773  10.328695  -8.498033  -4.021952 -37.146652 179.999556 -40.322188 179.999913   1.182839  -5.563762 -30.866525 -39.306745  -6.694396  -3.688554  21.709592   0.000020  -0.000041   2.028738  -7.489640   0.266756  -6.696148   0.000010   0.000128 -39.075751  -7.800584   7.164145  28.103222  -0.000032   0.000023  -9.372240  -2.847146  -4.126080  -0.551147  -0.000043   0.000000
 -2.334623   0.895800   3.845857  21.021875   9.400264  -7.726288  37.017348   2.387724  -4.290400   8.492897   0.828774  -4.017582   0.704581   1.640572  -2.946605  -3.692429  10.822040 -13.305281  -4.143011  -1.193855  38.194737 179.997876  37.998558 -179.999899   7.107026  -7.679486  26.407168  -5.591812  -8.529843  10.386323  -8.294701  -4.084992 -36.936811 179.999473 -40.277222 179.999857   1.044253  -5.706071 -30.724418 -39.264024  -6.675731  -3.748964  21.721730   0.000019  -0.000038   2.069127  -7.488986   0.309447  -6.762676   0.000009   0.000131 -38.992298  -7.745705   7.108741  28.071587  -0.000036   0.000025  -9.369337  -2.830810  -4.120025  -0.563679  -0.000039   0.000000
 -2.334030   0.895896   3.846004  20.969618   9.375604  -7.676387  36.939915   2.378111  -4.266185   8.470224   0.816080  -4.040364   0.735100   1.623100  -2.948459  -3.673381  10.782698 -13.488298  -3.974861  -1.231448  37.887289 179.997753  37.857910 -179.999982   6.899080  -7.777916  26.400473  -5.559687  -8.517628  10.442040  -8.105057  -4.144003 -36.739822 179.999429 -40.235162 179.999829   0.912707  -5.841088 -30.596387 -39.219190  -6.658439  -3.806280  21.734207   0.000018  -0.000035   2.108916  -7.488498   0.348795  -6.830753   0.000007   0.000134 -38.908168  -7.692714   7.056249  28.042546  -0.000039   0.000026  -9.368741  -2.815312  -4.114933  -0.575606  -0.000035   0.000000
 -2.333440   0.895992   3.846165  20.916772   9.351850  -7.629761  36.857773   2.368398  -4.242103   8.441813   0.803011  -4.060913   0.762632   1.606787  -2.950121  -3.656040  10.745289 -13.660353  -3.818273  -1.267103  37.599915 179.997735  37.725334 179.999928   6.702426  -7.871366  26.396983  -5.529901  -8.507027  10.495045  -7.928146  -4.199235 -36.555388 179.999416 -40.195901 179.999821   0.788064  -5.968654 -30.480127 -39.172590  -6.642372  -3.860700  21.747589   0.000018  -0.000034   2.148022  -7.488087   0.385083  -6.900586   0.000003   0.000136 -38.823674  -7.641839   7.006531  28.016278  -0.000040   0.000026  -9.370341  -2.800865  -4.110762  -0.587051  -0.000032   0.000000
 -2.332854   0.896063   3.846239  20.853390   9.334795  -7.577168  36.781131   2.353810  -4.211322   8.443025   0.776716  -4.080005   0.849944   1.591179  -2.963813  -3.624163  10.689767 -13.929201  -3.552141  -1.296611  37.023003 179.996867  37.551080 -179.999950   6.425534  -7.821707  26.325017  -5.491029  -8.463379  10.633173  -7.648149  -4.274062 -36.209515 179.999010 -40.112639 179.999646   0.578037  -6.214159 -30.386908 -39.124994  -6.611950  -3.924543  21.771305   0.000022  -0.000034   2.187127  -7.489283   0.449835  -6.969061   0.000014   0.000131 -38.739293  -7.590038   6.947840  27.997880  -0.000038   0.000024  -9.371799  -2.789423  -4.094177  -0.595461  -0.000027   0.000000
 -2.332287   0.896136   3.846301  20.791561   9.317344  -7.525407  36.703410   2.336432  -4.180816   8.445325   0.746627  -4.102415   0.943805   1.576029  -2.975671  -3.590832  10.615902 -14.243315  -3.296618  -1.329016  36.440404 179.996037  37.368197 -179.999873   6.102890  -7.418342  26.481167  -5.455297  -8.404929  10.802496  -7.382033  -4.334851 -35.859681 179.998717 -40.036031 179.999541   0.429871  -6.301927 -30.232086 -39.078280  -6.581869  -3.986276  21.791851   0.000024  -0.000032   2.227082  -7.489795   0.510001  -7.035494   0.000020   0.000126 -38.656338  -7.538762   6.890914  27.977212  -0.000038   0.000022  -9.371241  -2.778172  -4.078037  -0.603292  -0.000024  -0.000000
 -2.331738   0.896211   3.846378  20.732690   9.300630  -7.477192  36.622430   2.318233  -4.152832   8.442224   0.715790  -4.125692   1.034734   1.561605  -2.985558  -3.562569  10.538903 -14.557397  -3.059521  -1.368126  35.885338 179.995573  37.203090 -179.999869   5.799772  -7.267671  26.514543  -5.421051  -8.344658  10.974070  -7.130697  -4.392447 -35.523469 179.998462 -39.952326 179.999461   0.188127  -6.642315 -30.253272 -39.031361  -6.553970  -4.044322  21.809213   0.000024  -0.000031   2.266850  -7.490299   0.565667  -7.101543   0.000023   0.000120 -38.574816  -7.489957   6.837378  27.955398  -0.000038   0.000021  -9.370897  -2.767690  -4.062675  -0.610657  -0.000021  -0.000000
 -2.331205   0.896289   3.846479  20.676208   9.285058  -7.432856  36.538522   2.299772  -4.126993   8.433331   0.684794  -4.148959   1.120057   1.548070  -2.994905  -3.537205  10.462611 -14.857768  -2.838457  -1.408734  35.362601 179.995348  37.047431 -179.999901   5.515292  -7.064737  26.576772  -5.389786  -8.286301  11.138188  -6.895904  -4.443875 -35.207159 179.998327 -39.874135 179.999432  -0.033403  -6.925531 -30.252358 -38.983955  -6.528108  -4.098550  21.825361   0.000024  -0.000028   2.305364  -7.490719   0.617322  -7.168067   0.000024   0.000115 -38.494199  -7.443893   6.787542  27.933662  -0.000037   0.000020  -9.371891  -2.758278  -4.048383  -0.617664  -0.000018  -0.000000
 -2.330687   0.896369   3.846603  20.621653   9.271063  -7.392549  36.452598   2.281501  -4.103087   8.419570   0.654261  -4.171620   1.199278   1.535399  -3.003667  -3.513610  10.389017 -15.140599  -2.631851  -1.448808  34.873276 179.995299  36.899867 -179.999949   5.235928  -6.832354  26.658370  -5.361501  -8.231123  11.292426  -6.677170  -4.489580 -34.911238 179.998292 -39.802925 179.999441  -0.229295  -7.160273 -30.226606 -38.936057  -6.504135  -4.149134  21.841443   0.000023  -0.000026   2.342361  -7.490962   0.665345  -7.235650   0.000024   0.000109 -38.414430  -7.400802   6.741327  27.912784  -0.000036   0.000019  -9.374565  -2.750170  -4.035228  -0.624392  -0.000016  -0.000000
 -2.330185   0.896449   3.846746  20.568874   9.258870  -7.356195  36.365617   2.263728  -4.080899   8.401923   0.624594  -4.193363   1.272578   1.523554  -3.011900  -3.491494  10.318855 -15.405247  -2.438760  -1.487770  34.416302 179.995378  36.760218 179.999998   4.961881  -6.579504  26.754092  -5.335818  -8.179426  11.436528  -6.473431  -4.530437 -34.634936 179.998325 -39.738103 179.999474  -0.402890  -7.354899 -30.180327 -38.887899  -6.481882  -4.196388  21.857936   0.000023  -0.000024   2.377838  -7.490999   0.710015  -7.304404   0.000022   0.000103 -38.335744  -7.360726   6.698452  27.893111  -0.000035   0.000017  -9.378871  -2.743458  -4.023188  -0.630900  -0.000014  -0.000000
 -2.329686   0.896508   3.846810  20.519932   9.256233  -7.315409  36.311585   2.242200  -4.054488   8.357972   0.585904  -4.213676   1.408127   1.503123  -3.035107  -3.439801  10.221062 -15.701987  -2.180794  -1.548104  33.757235 179.995312  36.645086 -179.999949   4.611207  -6.125082  26.873554  -5.303849  -8.081044  11.637643  -6.189513  -4.576469 -34.247177 179.998196 -39.668978 179.999438  -0.541462  -7.413956 -30.017196 -38.857214  -6.479395  -4.258681  21.889705   0.000026  -0.000030   2.413476  -7.491123   0.771890  -7.374265   0.000032   0.000109 -38.269291  -7.312586   6.646913  27.872705  -0.000035   0.000014  -9.375520  -2.750611  -4.009579  -0.637340  -0.000013  -0.000000
